# xmcd
#
# Track frame offsets: 
#        150
#        31579
#        52497
#        80607
#        102589
#        118657
#        144798
#        163461
#        184871
#        208893
#
# Disc length: 3026 seconds
#
# Revision: 0
# Processed by: cddbd v1.5.2PL0 Copyright (c) Steve Scherf et al.
# Submitted via: ExactAudioCopy v1.0b3
#
DISCID=940bd00a
DTITLE=Truong Vu - Mot Nua Doi Nhau
DYEAR=1900
DGENRE=
TTITLE0=Mot nua doi nhau
TTITLE1=Mua lanh gia tu
TTITLE2=Muoi nam cho doi
TTITLE3=Chieu tuong nho
TTITLE4=Hoa bang lang
TTITLE5=Doan tinh dang do
TTITLE6=Sao em khong noi
TTITLE7=Chuyen tinh mong manh
TTITLE8=Hua voi Me
TTITLE9=Tinh xua nghia cu 2
EXTD=
EXTT0=
EXTT1=
EXTT2=
EXTT3=
EXTT4=
EXTT5=
EXTT6=
EXTT7=
EXTT8=
EXTT9=
PLAYORDER=
